<svg xmlns="http://www.w3.org/2000/svg" xmlns:xlink="http://www.w3.org/1999/xlink" id="exportSvg" width="656" height="526"><defs/><rect width="656" height="526" transform="translate(0, 0)" fill="rgb(255, 255, 255)" style="fill: rgb(255, 255, 255);"/><g><g id="__svelte-dw-svg" clip-path="url(#rect-mask-cNsxdqynX4JPI4un8-wmI)"><clipPath id="rect-mask-cNsxdqynX4JPI4un8-wmI"><rect x="0" y="0" width="656" height="526"/></clipPath><g id="chart-styles-svg datawrapper-VgtxM-cadg66-svg svelte-s57fvb-svg static-svg" clip-path="url(#rect-mask-C6WdKpgC1mLmj7T0Jdzxf)"><clipPath id="rect-mask-C6WdKpgC1mLmj7T0Jdzxf"><rect x="0" y="0" width="656" height="526"/></clipPath><g id="header-svg"><text transform="translate(0, 0)"><tspan fill="rgb(0,0,0)" x="0" y="22" style="font-family: Roboto; font-weight: 700; font-stretch: 100%; font-size: 22px;">Jeju Island's explosive growth in renewable energy</tspan></text><text transform="translate(0, 35)"><tspan fill="rgb(24,24,24)" x="0" y="14" style="font-family: Roboto; font-weight: 400; font-stretch: 100%; font-size: 14px;">Cumulative renewable energy capacity in Jeju (KW)</tspan></text></g><g id="chart-svg"><g id="group-svg" clip-path="url(#rect-mask-z5JZFR14wrfxStJNUeXXK)" transform="translate(0, 62)"><clipPath id="rect-mask-z5JZFR14wrfxStJNUeXXK"><rect x="0" y="0" width="656" height="431"/></clipPath><g id="container-svg" transform="translate(0, 53.82813)"><g id="grid-svg below-svg"><g id="y-grid-lines-svg grid-y-svg datawrapper-VgtxM-1fn7900-svg"><line x1="0" x2="656" y1="0" y2="0" transform="translate(0, 267.87891)" style="fill: none; stroke-width: 1; stroke-linejoin: miter; stroke-linecap: butt; stroke: rgb(231, 231, 231);"/><line x1="0" x2="656" y1="0" y2="0" transform="translate(0, 178.58594)" style="fill: none; stroke-width: 1; stroke-linejoin: miter; stroke-linecap: butt; stroke: rgb(231, 231, 231);"/><line x1="0" x2="656" y1="0" y2="0" transform="translate(0, 89.29297)" style="fill: none; stroke-width: 1; stroke-linejoin: miter; stroke-linecap: butt; stroke: rgb(231, 231, 231);"/><line x1="0" x2="656" y1="0" y2="0" style="fill: none; stroke-width: 1; stroke-linejoin: miter; stroke-linecap: butt; stroke: rgb(231, 231, 231);"/></g></g><g id="columns-svg"><g id="2006-svg" transform="translate(4.55179, 0)"><rect width="25.4956" height="0" transform="translate(0, 357.171875)" fill="rgb(0,82,122)" id="solar-0" style="fill: rgb(0, 82, 122);"/><rect width="25.4956" height="0.03973537109374092" transform="translate(0, 357.13213962890626)" fill="rgb(255,202,118)" id="solar_cumsum-1" style="fill: rgb(255, 202, 118);"/><rect width="25.4956" height="0" transform="translate(0, 357.13213962890626)" fill="rgb(0,120,162)" id="wind-2" style="fill: rgb(0, 120, 162);"/><rect width="25.4956" height="5.661174218750034" transform="translate(0, 351.4709654101562)" fill="rgb(115,174,249)" id="wind_cumsum-3" style="fill: rgb(115, 174, 249);"/><rect width="25.4956" height="0" transform="translate(0, 351.4709654101562)" fill="rgb(24,161,205)" id="wind_solar_cumsum-4" style="fill: rgb(24, 161, 205);"/></g><g id="2007-svg" transform="translate(41.28826, 0)"><rect width="25.4956" height="0" transform="translate(0, 357.171875)" fill="rgb(0,82,122)" id="solar-0" style="fill: rgb(0, 82, 122);"/><rect width="25.4956" height="0.11518792968752223" transform="translate(0, 357.0566870703125)" fill="rgb(255,202,118)" id="solar_cumsum-1" style="fill: rgb(255, 202, 118);"/><rect width="25.4956" height="0" transform="translate(0, 357.0566870703125)" fill="rgb(0,120,162)" id="wind-2" style="fill: rgb(0, 120, 162);"/><rect width="25.4956" height="12.358146874999989" transform="translate(0, 344.6985401953125)" fill="rgb(115,174,249)" id="wind_cumsum-3" style="fill: rgb(115, 174, 249);"/><rect width="25.4956" height="0" transform="translate(0, 344.6985401953125)" fill="rgb(24,161,205)" id="wind_solar_cumsum-4" style="fill: rgb(24, 161, 205);"/></g><g id="2008-svg" transform="translate(78.02472, 0)"><rect width="25.4956" height="0" transform="translate(0, 357.171875)" fill="rgb(0,82,122)" id="solar-0" style="fill: rgb(0, 82, 122);"/><rect width="25.4956" height="0.7482750781250047" transform="translate(0, 356.423599921875)" fill="rgb(255,202,118)" id="solar_cumsum-1" style="fill: rgb(255, 202, 118);"/><rect width="25.4956" height="0" transform="translate(0, 356.423599921875)" fill="rgb(0,120,162)" id="wind-2" style="fill: rgb(0, 120, 162);"/><rect width="25.4956" height="12.358146874999989" transform="translate(0, 344.065453046875)" fill="rgb(115,174,249)" id="wind_cumsum-3" style="fill: rgb(115, 174, 249);"/><rect width="25.4956" height="0" transform="translate(0, 344.065453046875)" fill="rgb(24,161,205)" id="wind_solar_cumsum-4" style="fill: rgb(24, 161, 205);"/></g><g id="2009-svg" transform="translate(114.86183, 0)"><rect width="25.4956" height="0" transform="translate(0, 357.171875)" fill="rgb(0,82,122)" id="solar-0" style="fill: rgb(0, 82, 122);"/><rect width="25.4956" height="2.1006170898437517" transform="translate(0, 355.07125791015625)" fill="rgb(255,202,118)" id="solar_cumsum-1" style="fill: rgb(255, 202, 118);"/><rect width="25.4956" height="0" transform="translate(0, 355.07125791015625)" fill="rgb(0,120,162)" id="wind-2" style="fill: rgb(0, 120, 162);"/><rect width="25.4956" height="27.09148671874999" transform="translate(0, 327.97977119140626)" fill="rgb(115,174,249)" id="wind_cumsum-3" style="fill: rgb(115, 174, 249);"/><rect width="25.4956" height="0" transform="translate(0, 327.97977119140626)" fill="rgb(24,161,205)" id="wind_solar_cumsum-4" style="fill: rgb(24, 161, 205);"/></g><g id="2010-svg" transform="translate(151.59829, 0)"><rect width="25.4956" height="0" transform="translate(0, 357.171875)" fill="rgb(0,82,122)" id="solar-0" style="fill: rgb(0, 82, 122);"/><rect width="25.4956" height="2.558690019531241" transform="translate(0, 354.61318498046876)" fill="rgb(255,202,118)" id="solar_cumsum-1" style="fill: rgb(255, 202, 118);"/><rect width="25.4956" height="0" transform="translate(0, 354.61318498046876)" fill="rgb(0,120,162)" id="wind-2" style="fill: rgb(0, 120, 162);"/><rect width="25.4956" height="31.89098378906249" transform="translate(0, 322.72220119140627)" fill="rgb(115,174,249)" id="wind_cumsum-3" style="fill: rgb(115, 174, 249);"/><rect width="25.4956" height="0" transform="translate(0, 322.72220119140627)" fill="rgb(24,161,205)" id="wind_solar_cumsum-4" style="fill: rgb(24, 161, 205);"/></g><g id="2011-svg" transform="translate(188.33475, 0)"><rect width="25.4956" height="0" transform="translate(0, 357.171875)" fill="rgb(0,82,122)" id="solar-0" style="fill: rgb(0, 82, 122);"/><rect width="25.4956" height="2.7752254687500226" transform="translate(0, 354.39664953125)" fill="rgb(255,202,118)" id="solar_cumsum-1" style="fill: rgb(255, 202, 118);"/><rect width="25.4956" height="0" transform="translate(0, 354.39664953125)" fill="rgb(0,120,162)" id="wind-2" style="fill: rgb(0, 120, 162);"/><rect width="25.4956" height="31.89098378906249" transform="translate(0, 322.5056657421875)" fill="rgb(115,174,249)" id="wind_cumsum-3" style="fill: rgb(115, 174, 249);"/><rect width="25.4956" height="0" transform="translate(0, 322.5056657421875)" fill="rgb(24,161,205)" id="wind_solar_cumsum-4" style="fill: rgb(24, 161, 205);"/></g><g id="2012-svg" transform="translate(225.07121, 0)"><rect width="25.4956" height="0" transform="translate(0, 357.171875)" fill="rgb(0,82,122)" id="solar-0" style="fill: rgb(0, 82, 122);"/><rect width="25.4956" height="4.022648242187472" transform="translate(0, 353.1492267578125)" fill="rgb(255,202,118)" id="solar_cumsum-1" style="fill: rgb(255, 202, 118);"/><rect width="25.4956" height="0" transform="translate(0, 353.1492267578125)" fill="rgb(0,120,162)" id="wind-2" style="fill: rgb(0, 120, 162);"/><rect width="25.4956" height="38.5879564453125" transform="translate(0, 314.5612703125)" fill="rgb(115,174,249)" id="wind_cumsum-3" style="fill: rgb(115, 174, 249);"/><rect width="25.4956" height="0" transform="translate(0, 314.5612703125)" fill="rgb(24,161,205)" id="wind_solar_cumsum-4" style="fill: rgb(24, 161, 205);"/></g><g id="2013-svg" transform="translate(261.90832, 0)"><rect width="25.4956" height="0" transform="translate(0, 357.171875)" fill="rgb(0,82,122)" id="solar-0" style="fill: rgb(0, 82, 122);"/><rect width="25.4956" height="6.505885703124989" transform="translate(0, 350.665989296875)" fill="rgb(255,202,118)" id="solar_cumsum-1" style="fill: rgb(255, 202, 118);"/><rect width="25.4956" height="0" transform="translate(0, 350.665989296875)" fill="rgb(0,120,162)" id="wind-2" style="fill: rgb(0, 120, 162);"/><rect width="25.4956" height="43.41424140625003" transform="translate(0, 307.251747890625)" fill="rgb(115,174,249)" id="wind_cumsum-3" style="fill: rgb(115, 174, 249);"/><rect width="25.4956" height="0" transform="translate(0, 307.251747890625)" fill="rgb(24,161,205)" id="wind_solar_cumsum-4" style="fill: rgb(24, 161, 205);"/></g><g id="2014-svg" transform="translate(298.64478, 0)"><rect width="25.4956" height="0" transform="translate(0, 357.171875)" fill="rgb(0,82,122)" id="solar-0" style="fill: rgb(0, 82, 122);"/><rect width="25.4956" height="23.2027779296875" transform="translate(0, 333.9690970703125)" fill="rgb(255,202,118)" id="solar_cumsum-1" style="fill: rgb(255, 202, 118);"/><rect width="25.4956" height="0" transform="translate(0, 333.9690970703125)" fill="rgb(0,120,162)" id="wind-2" style="fill: rgb(0, 120, 162);"/><rect width="25.4956" height="49.66474921874999" transform="translate(0, 284.3043478515625)" fill="rgb(115,174,249)" id="wind_cumsum-3" style="fill: rgb(115, 174, 249);"/><rect width="25.4956" height="0" transform="translate(0, 284.3043478515625)" fill="rgb(24,161,205)" id="wind_solar_cumsum-4" style="fill: rgb(24, 161, 205);"/></g><g id="2015-svg" transform="translate(335.38125, 0)"><rect width="25.4956" height="0" transform="translate(0, 357.171875)" fill="rgb(0,82,122)" id="solar-0" style="fill: rgb(0, 82, 122);"/><rect width="25.4956" height="33.16340859374998" transform="translate(0, 324.00846640625)" fill="rgb(255,202,118)" id="solar_cumsum-1" style="fill: rgb(255, 202, 118);"/><rect width="25.4956" height="0" transform="translate(0, 324.00846640625)" fill="rgb(0,120,162)" id="wind-2" style="fill: rgb(0, 120, 162);"/><rect width="25.4956" height="91.18597968750004" transform="translate(0, 232.82248671875)" fill="rgb(115,174,249)" id="wind_cumsum-3" style="fill: rgb(115, 174, 249);"/><rect width="25.4956" height="0" transform="translate(0, 232.82248671875)" fill="rgb(24,161,205)" id="wind_solar_cumsum-4" style="fill: rgb(24, 161, 205);"/></g><g id="2016-svg" transform="translate(372.11771, 0)"><rect width="25.4956" height="0" transform="translate(0, 357.171875)" fill="rgb(0,82,122)" id="solar-0" style="fill: rgb(0, 82, 122);"/><rect width="25.4956" height="40.00101767578127" transform="translate(0, 317.17085732421873)" fill="rgb(255,202,118)" id="solar_cumsum-1" style="fill: rgb(255, 202, 118);"/><rect width="25.4956" height="0" transform="translate(0, 317.17085732421873)" fill="rgb(0,120,162)" id="wind-2" style="fill: rgb(0, 120, 162);"/><rect width="25.4956" height="100.56174140625001" transform="translate(0, 216.60911591796872)" fill="rgb(115,174,249)" id="wind_cumsum-3" style="fill: rgb(115, 174, 249);"/><rect width="25.4956" height="0" transform="translate(0, 216.60911591796872)" fill="rgb(24,161,205)" id="wind_solar_cumsum-4" style="fill: rgb(24, 161, 205);"/></g><g id="2017-svg" transform="translate(408.95482, 0)"><rect width="25.4956" height="0" transform="translate(0, 357.171875)" fill="rgb(0,82,122)" id="solar-0" style="fill: rgb(0, 82, 122);"/><rect width="25.4956" height="54.21913708984374" transform="translate(0, 302.95273791015626)" fill="rgb(255,202,118)" id="solar_cumsum-1" style="fill: rgb(255, 202, 118);"/><rect width="25.4956" height="0" transform="translate(0, 302.95273791015626)" fill="rgb(0,120,162)" id="wind-2" style="fill: rgb(0, 120, 162);"/><rect width="25.4956" height="114.84861640624999" transform="translate(0, 188.10412150390624)" fill="rgb(115,174,249)" id="wind_cumsum-3" style="fill: rgb(115, 174, 249);"/><rect width="25.4956" height="0" transform="translate(0, 188.10412150390624)" fill="rgb(24,161,205)" id="wind_solar_cumsum-4" style="fill: rgb(24, 161, 205);"/></g><g id="2018-svg" transform="translate(445.69128, 0)"><rect width="25.4956" height="0" transform="translate(0, 357.171875)" fill="rgb(0,82,122)" id="solar-0" style="fill: rgb(0, 82, 122);"/><rect width="25.4956" height="72.81752308593752" transform="translate(0, 284.3543519140625)" fill="rgb(255,202,118)" id="solar_cumsum-1" style="fill: rgb(255, 202, 118);"/><rect width="25.4956" height="0" transform="translate(0, 284.3543519140625)" fill="rgb(0,120,162)" id="wind-2" style="fill: rgb(0, 120, 162);"/><rect width="25.4956" height="114.84861640624999" transform="translate(0, 169.5057355078125)" fill="rgb(115,174,249)" id="wind_cumsum-3" style="fill: rgb(115, 174, 249);"/><rect width="25.4956" height="0" transform="translate(0, 169.5057355078125)" fill="rgb(24,161,205)" id="wind_solar_cumsum-4" style="fill: rgb(24, 161, 205);"/></g><g id="2019-svg" transform="translate(482.42774, 0)"><rect width="25.4956" height="0" transform="translate(0, 357.171875)" fill="rgb(0,82,122)" id="solar-0" style="fill: rgb(0, 82, 122);"/><rect width="25.4956" height="119.71419027343748" transform="translate(0, 237.45768472656252)" fill="rgb(255,202,118)" id="solar_cumsum-1" style="fill: rgb(255, 202, 118);"/><rect width="25.4956" height="0" transform="translate(0, 237.45768472656252)" fill="rgb(0,120,162)" id="wind-2" style="fill: rgb(0, 120, 162);"/><rect width="25.4956" height="114.84861640624999" transform="translate(0, 122.6090683203125)" fill="rgb(115,174,249)" id="wind_cumsum-3" style="fill: rgb(115, 174, 249);"/><rect width="25.4956" height="0" transform="translate(0, 122.6090683203125)" fill="rgb(24,161,205)" id="wind_solar_cumsum-4" style="fill: rgb(24, 161, 205);"/></g><g id="2020-svg" transform="translate(519.1642, 0)"><rect width="25.4956" height="0" transform="translate(0, 357.171875)" fill="rgb(0,82,122)" id="solar-0" style="fill: rgb(0, 82, 122);"/><rect width="25.4956" height="167.37833052734373" transform="translate(0, 189.79354447265627)" fill="rgb(255,202,118)" id="solar_cumsum-1" style="fill: rgb(255, 202, 118);"/><rect width="25.4956" height="0" transform="translate(0, 189.79354447265627)" fill="rgb(0,120,162)" id="wind-2" style="fill: rgb(0, 120, 162);"/><rect width="25.4956" height="127.43892500000001" transform="translate(0, 62.35461947265625)" fill="rgb(115,174,249)" id="wind_cumsum-3" style="fill: rgb(115, 174, 249);"/><rect width="25.4956" height="0" transform="translate(0, 62.35461947265625)" fill="rgb(24,161,205)" id="wind_solar_cumsum-4" style="fill: rgb(24, 161, 205);"/></g><g id="2021-svg" transform="translate(556.00131, 0)"><rect width="25.4956" height="0" transform="translate(0, 357.171875)" fill="rgb(0,82,122)" id="solar-0" style="fill: rgb(0, 82, 122);"/><rect width="25.4956" height="215.7541357421875" transform="translate(0, 141.4177392578125)" fill="rgb(255,202,118)" id="solar_cumsum-1" style="fill: rgb(255, 202, 118);"/><rect width="25.4956" height="0" transform="translate(0, 141.4177392578125)" fill="rgb(0,120,162)" id="wind-2" style="fill: rgb(0, 120, 162);"/><rect width="25.4956" height="127.43892500000001" transform="translate(0, 13.978814257812516)" fill="rgb(115,174,249)" id="wind_cumsum-3" style="fill: rgb(115, 174, 249);"/><rect width="25.4956" height="0" transform="translate(0, 13.978814257812516)" fill="rgb(24,161,205)" id="wind_solar_cumsum-4" style="fill: rgb(24, 161, 205);"/></g><g id="2022-svg" transform="translate(592.73777, 0)"><rect width="25.4956" height="0" transform="translate(0, 357.171875)" fill="rgb(0,82,122)" id="solar-0" style="fill: rgb(0, 82, 122);"/><rect width="25.4956" height="227.28944791015624" transform="translate(0, 129.88242708984376)" fill="rgb(255,202,118)" id="solar_cumsum-1" style="fill: rgb(255, 202, 118);"/><rect width="25.4956" height="0" transform="translate(0, 129.88242708984376)" fill="rgb(0,120,162)" id="wind-2" style="fill: rgb(0, 120, 162);"/><rect width="25.4956" height="127.43892500000001" transform="translate(0, 2.4435020898437574)" fill="rgb(115,174,249)" id="wind_cumsum-3" style="fill: rgb(115, 174, 249);"/><rect width="25.4956" height="0" transform="translate(0, 2.4435020898437574)" fill="rgb(24,161,205)" id="wind_solar_cumsum-4" style="fill: rgb(24, 161, 205);"/></g></g><g id="overlays-svg"/><g id="grid-svg above-svg"><g id="y-tick-labels-svg grid-y-svg number-axis-svg datawrapper-VgtxM-1p0pqj9-svg" transform="translate(656, 0)"><text transform="translate(0, 262.87891) translate(-28.21484, 0) translate(28.21484375, 0)" style="text-anchor: end;"><tspan fill="rgb(162, 162, 162)" style="font-family: Roboto; font-weight: 400; font-stretch: 100%; font-size: 12px;" x="0" dominant-baseline="auto" y="0">200K</tspan></text><text transform="translate(0, 173.58594) translate(-28.21484, 0) translate(28.21484375, 0)" style="text-anchor: end;"><tspan fill="rgb(162, 162, 162)" style="font-family: Roboto; font-weight: 400; font-stretch: 100%; font-size: 12px;" x="0" dominant-baseline="auto" y="0">400K</tspan></text><text transform="translate(0, 84.29297) translate(-28.21484, 0) translate(28.21484375, 0)" style="text-anchor: end;"><tspan fill="rgb(162, 162, 162)" style="font-family: Roboto; font-weight: 400; font-stretch: 100%; font-size: 12px;" x="0" dominant-baseline="auto" y="0">600K</tspan></text><text transform="translate(0, -5) translate(-28.21484, 0) translate(28.21484375, 0)" style="text-anchor: end;"><tspan fill="rgb(162, 162, 162)" style="font-family: Roboto; font-weight: 400; font-stretch: 100%; font-size: 12px;" x="0" dominant-baseline="auto" y="0">800K</tspan></text></g><g id="y-base-lines-svg grid-y-svg datawrapper-VgtxM-1io9s9d-svg"><line x1="656" x2="0" y1="0" y2="0" transform="translate(0, 357.17188)" style="fill: none; stroke-width: 1; stroke-linejoin: miter; stroke-linecap: square; stroke: rgb(24, 24, 24);"/></g><g id="x-tick-labels-svg grid-x-svg date-axis-svg datawrapper-VgtxM-63wp0p-svg" transform="translate(0, 362.17188)"><text transform="translate(17.29959, 12) translate(-13.60742, 0) translate(13.607421875, 0)" style="text-anchor: middle;"><tspan fill="rgb(116, 116, 116)" style="font-family: Roboto; font-weight: 400; font-stretch: 100%; font-size: 12px;" x="0" dominant-baseline="auto" y="0">2006</tspan></text><text transform="translate(90.77251, 12) translate(-13.60742, 0) translate(13.607421875, 0)" style="text-anchor: middle;"><tspan fill="rgb(116, 116, 116)" style="font-family: Roboto; font-weight: 400; font-stretch: 100%; font-size: 12px;" x="0" dominant-baseline="auto" y="0">2008</tspan></text><text transform="translate(164.34608, 12) translate(-13.60742, 0) translate(13.607421875, 0)" style="text-anchor: middle;"><tspan fill="rgb(116, 116, 116)" style="font-family: Roboto; font-weight: 400; font-stretch: 100%; font-size: 12px;" x="0" dominant-baseline="auto" y="0">2010</tspan></text><text transform="translate(237.81901, 12) translate(-13.60742, 0) translate(13.607421875, 0)" style="text-anchor: middle;"><tspan fill="rgb(116, 116, 116)" style="font-family: Roboto; font-weight: 400; font-stretch: 100%; font-size: 12px;" x="0" dominant-baseline="auto" y="0">2012</tspan></text><text transform="translate(311.39258, 12) translate(-13.60742, 0) translate(13.607421875, 0)" style="text-anchor: middle;"><tspan fill="rgb(116, 116, 116)" style="font-family: Roboto; font-weight: 400; font-stretch: 100%; font-size: 12px;" x="0" dominant-baseline="auto" y="0">2014</tspan></text><text transform="translate(384.8655, 12) translate(-13.60742, 0) translate(13.607421875, 0)" style="text-anchor: middle;"><tspan fill="rgb(116, 116, 116)" style="font-family: Roboto; font-weight: 400; font-stretch: 100%; font-size: 12px;" x="0" dominant-baseline="auto" y="0">2016</tspan></text><text transform="translate(458.43907, 12) translate(-13.60742, 0) translate(13.607421875, 0)" style="text-anchor: middle;"><tspan fill="rgb(116, 116, 116)" style="font-family: Roboto; font-weight: 400; font-stretch: 100%; font-size: 12px;" x="0" dominant-baseline="auto" y="0">2018</tspan></text><text transform="translate(531.912, 12) translate(-13.60742, 0) translate(13.607421875, 0)" style="text-anchor: middle;"><tspan fill="rgb(116, 116, 116)" style="font-family: Roboto; font-weight: 400; font-stretch: 100%; font-size: 12px;" x="0" dominant-baseline="auto" y="0">2020</tspan></text><text transform="translate(605.48557, 12) translate(-13.60742, 0) translate(13.607421875, 0)" style="text-anchor: middle;"><tspan fill="rgb(116, 116, 116)" style="font-family: Roboto; font-weight: 400; font-stretch: 100%; font-size: 12px;" x="0" dominant-baseline="auto" y="0">2022</tspan></text><g id="labels-svg series-svg"><g id="2006-svg" transform="translate(17.29959, 0)"/><g id="2007-svg" transform="translate(54.03605, 0)"/><g id="2008-svg" transform="translate(90.77251, 0)"/><g id="2009-svg" transform="translate(127.60962, 0)"/><g id="2010-svg" transform="translate(164.34608, 0)"/><g id="2011-svg" transform="translate(201.08254, 0)"/><g id="2012-svg" transform="translate(237.81901, 0)"/><g id="2013-svg" transform="translate(274.65612, 0)"/><g id="2014-svg" transform="translate(311.39258, 0)"/><g id="2015-svg" transform="translate(348.12904, 0)"/><g id="2016-svg" transform="translate(384.8655, 0)"/><g id="2017-svg" transform="translate(421.70261, 0)"/><g id="2018-svg" transform="translate(458.43907, 0)"/><g id="2019-svg" transform="translate(495.17554, 0)"/><g id="2020-svg" transform="translate(531.912, 0)"/><g id="2021-svg" transform="translate(568.74911, 0)"/><g id="2022-svg" transform="translate(605.48557, 0)"/></g></g><g id="x-base-lines-svg grid-x-svg datawrapper-VgtxM-1io9s9d-svg"/></g><g id="axes-svg"/></g></g><rect width="14" height="14" transform="translate(0, 62.828125)" fill="rgb(255,202,118)" id="solar_cumsum-1" style="fill: rgb(255, 202, 118);"/><text transform="translate(18, 62.828125)" id="solar_cumsum-1"><tspan fill="rgb(24,24,24)" x="0" y="12" style="font-family: Roboto; font-weight: 400; font-stretch: 100%; font-size: 12px;">Solar</tspan></text><rect width="14" height="14" transform="translate(53.46875, 62.828125)" fill="rgb(115,174,249)" id="wind_cumsum-3" style="fill: rgb(115, 174, 249);"/><text transform="translate(71.46875, 62.828125)" id="wind_cumsum-3"><tspan fill="rgb(24,24,24)" x="0" y="12" style="font-family: Roboto; font-weight: 400; font-stretch: 100%; font-size: 12px;">Wind</tspan></text><g id="svelte-1i4o0yt-svg" transform="translate(387, 301.82813)"><g id="callout-line-svg"><path d="M -52.597208972299725,-73.99999999999997 Q -45.16976851803787,-29.586244176704003 -4.2857086885608,-2.712851909346094" stroke="rgb(24,24,24)" style="fill: none; stroke-width: 1; stroke-linejoin: miter; stroke-linecap: butt; stroke: rgb(24, 24, 24);"/><path d="M-8.75,-3.75 L 1,0 L -8.75,3.75" transform="translate(-4.28571, -2.71285) rotate(35.3714292607335)" style="fill: rgb(24, 24, 24);"/></g></g><text transform="translate(224, 173.828125)"><tspan fill="rgb(24,24,24)" x="0" y="14" style="font-family: Roboto; font-weight: 400; font-stretch: 100%; font-size: 14px;">Wind capacity growth slowed since </tspan><tspan fill="rgb(24,24,24)" x="0" y="30.796875" style="font-family: Roboto; font-weight: 400; font-stretch: 100%; font-size: 14px;">2016, around the time curtailment </tspan><tspan fill="rgb(24,24,24)" x="0" y="47.59375" style="font-family: Roboto; font-weight: 400; font-stretch: 100%; font-size: 14px;">started to increase.</tspan></text></g><g id="footer-svg"><text transform="translate(0, 513)"><tspan fill="rgb(136,136,136)" x="0" y="11" style="font-family: Roboto; font-weight: 400; font-stretch: 100%; font-size: 11px;">Source</tspan><tspan fill="rgb(136,136,136)" style="font-family: Roboto; font-weight: 400; font-stretch: 100%; font-size: 11px;">:</tspan><tspan fill="rgb(136,136,136)" dx="2.734375" style="font-family: Roboto; font-weight: 400; font-stretch: 100%; font-size: 11px;">South Korea Public Data Portal</tspan><tspan fill="rgb(136,136,136)" dx="2.734375" style="font-family: Roboto; font-weight: 400; font-stretch: 100%; font-size: 11px;">•</tspan><tspan fill="rgb(136,136,136)" dx="2.734375" style="font-family: Roboto; font-weight: 400; font-stretch: 100%; font-size: 11px;">Created with</tspan><tspan fill="rgb(136,136,136)" dx="2.734375" style="font-family: Roboto; font-weight: 400; font-stretch: 100%; font-size: 11px;">Datawrapper</tspan></text></g></g></g></g></svg>