<svg xmlns="http://www.w3.org/2000/svg" xmlns:xlink="http://www.w3.org/1999/xlink" id="exportSvg" width="680" height="484"><defs/><g><g id="__svelte-dw-svg" clip-path="url(#rect-mask-M-xFfOIg98dQE1exUDQXs)"><clipPath id="rect-mask-M-xFfOIg98dQE1exUDQXs"><rect x="0" y="0" width="680" height="484"/></clipPath><g id="chart-styles-svg datawrapper-IDnsF-cadg66-svg svelte-s57fvb-svg static-svg" clip-path="url(#rect-mask-VtmNQNfYUyi6TK1VVNNFr)"><clipPath id="rect-mask-VtmNQNfYUyi6TK1VVNNFr"><rect x="0" y="0" width="680" height="484"/></clipPath><g id="header-svg"><text transform="translate(0, 0)"><tspan fill="rgb(0,0,0)" x="0" y="22" style="font-family: Roboto; font-weight: 700; font-stretch: 100%; font-size: 22px;">Frequency of wind curtailment increased 30 times in 7 years.</tspan></text><text transform="translate(0, 35)"><tspan fill="rgb(24,24,24)" x="0" y="14" style="font-family: Roboto; font-weight: 400; font-stretch: 100%; font-size: 14px;">Number of times wind farms were curtailed in Jeju Island.</tspan></text></g><g id="chart-svg"><g id="svg-main-svg" clip-path="url(#rect-mask-fudbuBroymfpiS7JvBJ7f)" transform="translate(0, 62)"><clipPath id="rect-mask-fudbuBroymfpiS7JvBJ7f"><rect x="0" y="0" width="680" height="389"/></clipPath><g id="group-svg" transform="translate(26.47656, 6)"><g id="y-grid-lines-svg grid-y-svg datawrapper-IDnsF-1fn7900-svg"><line x1="0" x2="623.5234375" y1="0" y2="0" transform="translate(0, 327.75728)" style="fill: none; stroke-width: 1; stroke-linejoin: miter; stroke-linecap: butt; stroke: rgb(231, 231, 231);"/><line x1="0" x2="623.5234375" y1="0" y2="0" transform="translate(0, 292.51456)" style="fill: none; stroke-width: 1; stroke-linejoin: miter; stroke-linecap: butt; stroke: rgb(231, 231, 231);"/><line x1="0" x2="623.5234375" y1="0" y2="0" transform="translate(0, 257.27184)" style="fill: none; stroke-width: 1; stroke-linejoin: miter; stroke-linecap: butt; stroke: rgb(231, 231, 231);"/><line x1="0" x2="623.5234375" y1="0" y2="0" transform="translate(0, 222.02913)" style="fill: none; stroke-width: 1; stroke-linejoin: miter; stroke-linecap: butt; stroke: rgb(231, 231, 231);"/><line x1="0" x2="623.5234375" y1="0" y2="0" transform="translate(0, 186.78641)" style="fill: none; stroke-width: 1; stroke-linejoin: miter; stroke-linecap: butt; stroke: rgb(231, 231, 231);"/><line x1="0" x2="623.5234375" y1="0" y2="0" transform="translate(0, 151.54369)" style="fill: none; stroke-width: 1; stroke-linejoin: miter; stroke-linecap: butt; stroke: rgb(231, 231, 231);"/><line x1="0" x2="623.5234375" y1="0" y2="0" transform="translate(0, 116.30097)" style="fill: none; stroke-width: 1; stroke-linejoin: miter; stroke-linecap: butt; stroke: rgb(231, 231, 231);"/><line x1="0" x2="623.5234375" y1="0" y2="0" transform="translate(0, 81.05825)" style="fill: none; stroke-width: 1; stroke-linejoin: miter; stroke-linecap: butt; stroke: rgb(231, 231, 231);"/><line x1="0" x2="623.5234375" y1="0" y2="0" transform="translate(0, 45.81553)" style="fill: none; stroke-width: 1; stroke-linejoin: miter; stroke-linecap: butt; stroke: rgb(231, 231, 231);"/><line x1="0" x2="623.5234375" y1="0" y2="0" transform="translate(0, 10.57282)" style="fill: none; stroke-width: 1; stroke-linejoin: miter; stroke-linecap: butt; stroke: rgb(231, 231, 231);"/></g><path d="M9.689211010632883,363C38.435519269104546,363,67.18182752757622,363,95.92813578604787,363C124.75320105344686,363,153.57826632084584,363,182.40333158824484,363C211.1496398467165,363,239.89594810518813,363,268.6422563636598,363C297.38856462213147,363,326.1348728806031,363,354.8811811390748,363C383.62748939754647,363,412.3737976560181,363,441.1201059144898,363C469.9451711818888,363,498.7702364492878,363,527.5953017166868,363C556.3416099751585,363,585.08791823363,363,613.8342264921017,363L613.8342264921017,0C585.08791823363,68.72330097087378,556.3416099751585,137.4466019417476,527.5953017166868,137.4466019417476C498.7702364492878,137.4466019417476,469.9451711818888,91.63106796116504,441.1201059144898,91.63106796116504C412.3737976560181,91.63106796116504,383.62748939754647,164.4660194174757,354.8811811390748,200.88349514563106C326.1348728806031,237.3009708737864,297.38856462213147,307.78640776699035,268.6422563636598,310.1359223300971C239.89594810518813,312.4854368932039,211.1496398467165,311.3106796116505,182.40333158824484,313.6601941747573C153.57826632084584,316.0161457640644,124.75320105344686,335.39238714727065,95.92813578604787,341.8543689320388C67.18182752757622,348.29869502887044,38.435519269104546,350.3629397474449,9.689211010632883,352.4271844660194Z" style="fill: rgb(199, 30, 29); opacity: 0.29;"/><g id="lines-svg"><g id="frequency-svg"><path d="M9.689211010632883,352.4271844660194C38.435519269104546,350.3629397474449,67.18182752757622,348.29869502887044,95.92813578604787,341.8543689320388C124.75320105344686,335.39238714727065,153.57826632084584,316.0161457640644,182.40333158824484,313.6601941747573C211.1496398467165,311.3106796116505,239.89594810518813,312.4854368932039,268.6422563636598,310.1359223300971C297.38856462213147,307.78640776699035,326.1348728806031,237.3009708737864,354.8811811390748,200.88349514563106C383.62748939754647,164.4660194174757,412.3737976560181,91.63106796116504,441.1201059144898,91.63106796116504C469.9451711818888,91.63106796116504,498.7702364492878,137.4466019417476,527.5953017166868,137.4466019417476C556.3416099751585,137.4466019417476,585.08791823363,68.72330097087378,613.8342264921017,0" stroke="rgb(199,30,29)" id="frequency" style="fill: none; stroke-width: 4; stroke-linejoin: round; stroke-linecap: round; stroke: rgb(199, 30, 29);"/></g></g><g id="line-symbols-svg"><path d="M1,0A1,1,0,1,1,-1,0A1,1,0,1,1,1,0" id="frequency" transform="translate(9.68921, 352.42718) scale(5)" style="fill: rgb(199, 30, 29);"/><path d="M1,0A1,1,0,1,1,-1,0A1,1,0,1,1,1,0" id="frequency" transform="translate(613.83423, 0) scale(5)" style="fill: rgb(199, 30, 29);"/></g><g id="x-tick-labels-svg grid-x-svg date-axis-svg datawrapper-IDnsF-63wp0p-svg" transform="translate(0, 368)"><text transform="translate(9.68921, 12) translate(-13.60742, 0) translate(13.607420921325684, 0)" style="text-anchor: middle;"><tspan fill="rgb(116, 116, 116)" style="font-family: Roboto; font-weight: 400; font-stretch: 100%; font-size: 12px;" x="0" dominant-baseline="auto" y="0">2015</tspan></text><text transform="translate(95.92814, 12) translate(-13.60742, 0) translate(13.607418060302734, 0)" style="text-anchor: middle;"><tspan fill="rgb(116, 116, 116)" style="font-family: Roboto; font-weight: 400; font-stretch: 100%; font-size: 12px;" x="0" dominant-baseline="auto" y="0">2016</tspan></text><text transform="translate(182.40333, 12) translate(-13.60742, 0) translate(13.607421875, 0)" style="text-anchor: middle;"><tspan fill="rgb(116, 116, 116)" style="font-family: Roboto; font-weight: 400; font-stretch: 100%; font-size: 12px;" x="0" dominant-baseline="auto" y="0">2017</tspan></text><text transform="translate(268.64226, 12) translate(-13.60742, 0) translate(13.607421875, 0)" style="text-anchor: middle;"><tspan fill="rgb(116, 116, 116)" style="font-family: Roboto; font-weight: 400; font-stretch: 100%; font-size: 12px;" x="0" dominant-baseline="auto" y="0">2018</tspan></text><text transform="translate(354.88118, 12) translate(-13.47656, 0) translate(13.4765625, 0)" style="text-anchor: middle;"><tspan fill="rgb(116, 116, 116)" style="font-family: Roboto; font-weight: 400; font-stretch: 100%; font-size: 12px;" x="0" dominant-baseline="auto" y="0">2019</tspan></text><text transform="translate(441.12011, 12) translate(-13.60742, 0) translate(13.607421875, 0)" style="text-anchor: middle;"><tspan fill="rgb(116, 116, 116)" style="font-family: Roboto; font-weight: 400; font-stretch: 100%; font-size: 12px;" x="0" dominant-baseline="auto" y="0">2020</tspan></text><text transform="translate(527.5953, 12) translate(-13.47656, 0) translate(13.4765625, 0)" style="text-anchor: middle;"><tspan fill="rgb(116, 116, 116)" style="font-family: Roboto; font-weight: 400; font-stretch: 100%; font-size: 12px;" x="0" dominant-baseline="auto" y="0">2021</tspan></text><text transform="translate(613.83423, 12) translate(-13.60742, 0) translate(13.607421875, 0)" style="text-anchor: middle;"><tspan fill="rgb(116, 116, 116)" style="font-family: Roboto; font-weight: 400; font-stretch: 100%; font-size: 12px;" x="0" dominant-baseline="auto" y="0">2022</tspan></text></g><g id="x-base-lines-svg grid-x-svg datawrapper-IDnsF-1io9s9d-svg"/><g id="y-tick-labels-svg grid-y-svg number-axis-svg datawrapper-IDnsF-yhj5g2-svg" transform="translate(-5, 0)"><text transform="translate(0, 367) translate(-7, 0) translate(7, 0)" style="text-anchor: end;"><tspan fill="rgb(162, 162, 162)" style="font-family: Roboto; font-weight: 400; font-stretch: 100%; font-size: 12px;" x="0" dominant-baseline="auto" y="0">0</tspan></text><text transform="translate(0, 331.75728) translate(-13.73828, 0) translate(13.73828125, 0)" style="text-anchor: end;"><tspan fill="rgb(162, 162, 162)" style="font-family: Roboto; font-weight: 400; font-stretch: 100%; font-size: 12px;" x="0" dominant-baseline="auto" y="0">10</tspan></text><text transform="translate(0, 296.51456) translate(-13.73828, 0) translate(13.73828125, 0)" style="text-anchor: end;"><tspan fill="rgb(162, 162, 162)" style="font-family: Roboto; font-weight: 400; font-stretch: 100%; font-size: 12px;" x="0" dominant-baseline="auto" y="0">20</tspan></text><text transform="translate(0, 261.27184) translate(-13.73828, 0) translate(13.73828125, 0)" style="text-anchor: end;"><tspan fill="rgb(162, 162, 162)" style="font-family: Roboto; font-weight: 400; font-stretch: 100%; font-size: 12px;" x="0" dominant-baseline="auto" y="0">30</tspan></text><text transform="translate(0, 226.02913) translate(-13.73828, 0) translate(13.73828125, 0)" style="text-anchor: end;"><tspan fill="rgb(162, 162, 162)" style="font-family: Roboto; font-weight: 400; font-stretch: 100%; font-size: 12px;" x="0" dominant-baseline="auto" y="0">40</tspan></text><text transform="translate(0, 190.78641) translate(-13.73828, 0) translate(13.73828125, 0)" style="text-anchor: end;"><tspan fill="rgb(162, 162, 162)" style="font-family: Roboto; font-weight: 400; font-stretch: 100%; font-size: 12px;" x="0" dominant-baseline="auto" y="0">50</tspan></text><text transform="translate(0, 155.54369) translate(-13.73828, 0) translate(13.73828125, 0)" style="text-anchor: end;"><tspan fill="rgb(162, 162, 162)" style="font-family: Roboto; font-weight: 400; font-stretch: 100%; font-size: 12px;" x="0" dominant-baseline="auto" y="0">60</tspan></text><text transform="translate(0, 120.30097) translate(-13.73828, 0) translate(13.73828125, 0)" style="text-anchor: end;"><tspan fill="rgb(162, 162, 162)" style="font-family: Roboto; font-weight: 400; font-stretch: 100%; font-size: 12px;" x="0" dominant-baseline="auto" y="0">70</tspan></text><text transform="translate(0, 85.05825) translate(-13.73828, 0) translate(13.73828125, 0)" style="text-anchor: end;"><tspan fill="rgb(162, 162, 162)" style="font-family: Roboto; font-weight: 400; font-stretch: 100%; font-size: 12px;" x="0" dominant-baseline="auto" y="0">80</tspan></text><text transform="translate(0, 49.81553) translate(-13.73828, 0) translate(13.73828125, 0)" style="text-anchor: end;"><tspan fill="rgb(162, 162, 162)" style="font-family: Roboto; font-weight: 400; font-stretch: 100%; font-size: 12px;" x="0" dominant-baseline="auto" y="0">90</tspan></text><text transform="translate(0, 14.57282) translate(-20.47656, 0) translate(20.4765625, 0)" style="text-anchor: end;"><tspan fill="rgb(162, 162, 162)" style="font-family: Roboto; font-weight: 400; font-stretch: 100%; font-size: 12px;" x="0" dominant-baseline="auto" y="0">100</tspan></text></g><g id="y-base-lines-svg grid-y-svg datawrapper-IDnsF-1io9s9d-svg"><line x1="623.5234375" x2="0" y1="0" y2="0" transform="translate(0, 363)" style="fill: none; stroke-width: 1; stroke-linejoin: miter; stroke-linecap: square; stroke: rgb(24, 24, 24);"/></g></g></g><text transform="translate(649.984375, 63)" id="frequency"><tspan fill="rgb(24,24,24)" x="0" y="12" style="font-family: Roboto; font-weight: 400; font-stretch: 100%; font-size: 12px;">103</tspan></text><g id="tooltip-layer-svg" clip-path="url(#rect-mask-pW0EFZsMqcOwMN2BOW85Q)" transform="translate(0, 62)"><clipPath id="rect-mask-pW0EFZsMqcOwMN2BOW85Q"><rect x="0" y="0" width="680" height="389"/></clipPath><g id="group-svg" transform="translate(26.47656, 6)"/></g></g><g id="footer-svg"><text transform="translate(0, 471)"><tspan fill="rgb(136,136,136)" x="0" y="11" style="font-family: Roboto; font-weight: 400; font-stretch: 100%; font-size: 11px;">Created with</tspan><tspan fill="rgb(136,136,136)" dx="2.734375" style="font-family: Roboto; font-weight: 400; font-stretch: 100%; font-size: 11px;">Datawrapper</tspan></text></g></g></g></g></svg>